<?xml version="1.0" encoding="UTF-8"?>
<svg id="_Слой_1" data-name="Слой 1" xmlns="http://www.w3.org/2000/svg" viewBox="0 0 100 100">
  <defs>
    <style>
      .cls-1 {
        fill: #f8be15;
      }

      .cls-1, .cls-2 {
        stroke-width: 0px;
      }

      .cls-2 {
        fill: #49bfdc;
      }
    </style>
  </defs>
  <g>
    <path class="cls-1" d="m19.55,38.79c-.51.36-4.24.92-.79-12.59,4.55-17.8,9.62-15.58,9.87-15.79.54-.45.81-.67,1.38-1.09.6-.45.69-.67.16.62-1.02,2.49-1.48,4.95-1.05,4.76.32-.14,1.47-2.69,5.53-7.13,2.14-2.34,2.37-2.38,3.09-2.68.57-.24.86-.35,1.44-.57.32-.12-.82-3.27-2.5,14.86-1.27,13.76-.55,13.77-1.21,13.86-1.35.19-2.02.3-3.39.54-.32.06-.94.3-1.03-.37-.07-.52.23-8.27,2.21-17.2.16-.72,1.4-4.75.67-4.52-.64.21-2.58,3.68-3.04,4.56-3.9,7.52-2.85,11.07-4.49,11.67-2.06.76-1.9-3.42-1.21-9.24.06-.62.95-3.46.37-3.09-.62.39-2.55,4.33-2.82,5.04-3.35,8.81-.32,15.39-.23,15.9.11.66-.44.84-.7,1-.93.54-1.38.84-2.25,1.46Z"/>
    <path class="cls-1" d="m40.63,32.43c-1.38.21-1.59-1.37-1.57-9.13,0-5.14,4.41-20.3,4.99-20.43,3.13-.71,4.77-.91,8.12-.95.26,0,1.03-.09,1.01.48,0,.23-1.64,4.51-1.94,4.51-.4,0-1.01-1.5-3.22-1.31-1.56.13-3.46,1.55-3.89,4.77-.09.7-.14,1.93.55,1.86.79-.08,2.67-1.87,4.73-1.95.3-.01,1.1.1,1.08.69,0,.03-1.61,5.95-1.92,5.96-.26,0-1.23-.7-2.23-.63-1.32.09-3.37,1.58-3.41,5.4-.04,3.09,1.2,5.34,3.42,5.24,2.62-.12,4.17-2.77,4.81-2.77.4,0,2.32,6.84,2.33,7.23.02.75-.63.58-.94.57-4.73-.08-7.1,0-11.9.44Z"/>
    <path class="cls-1" d="m54.15,17.46c-.07-8.91,2.84-16.02,7.49-14.89,1.69.41,4.63,2.17,5.54,5.46.49,1.77-.17,2.61-1.6,2.27-.93-.22-.27-2.98-3.03-3.55-3.44-.71-4.37,5.04-4.21,10.23.12,4.07.99,8.72,4.4,9.1,1.61.18,3.37-.63,3.27-3.33-.11-3.12-2.18-3.66-2.24-4.62-.03-.48,4.03-1.96,4.32-1.9.49.11,1.79,9.28,1.8,10.45.06,5.11-3.53,6.89-6.68,6.56-5.89-.62-9-7.37-9.06-15.79Z"/>
    <path class="cls-1" d="m82.66,36.05c-.23-.05-.97-.11-.91-.66.11-1.02,2.37-4.27,1.8-8.28-.22-1.58-1.39-2.51-2.48-2.85-2.19-.7-5.52-1.17-5.38,3.15.09,2.99,1.49,6.61,1.44,7.17-.02.22-.18.23-.51.16-1.45-.29-2.17-.43-3.62-.68-1.29-.23-1.28-3.85-1.47-8.82-.62-16.36.77-18.18,1.47-17.72.53.35,11.57,5.36,14.16,21.26,1.49,9.15-.92,8.16-1.68,7.97-1.13-.28-1.7-.42-2.83-.69Zm-7.55-17.84c.09.41.3.7.59.79.42.13,2.47-.02,4.46.74.79.3,1.1.28.77-.62-.74-1.98-4.2-6.56-4.94-6.93-1.04-.52-1.42,3.52-.87,6.02Z"/>
  </g>
  <g>
    <path class="cls-1" d="m41.18,77.61c-.41.1.52-5.86-5.03-10.74-7.33-6.45-15.91-14.74-17.08-25.38,1.29-.87,1.97-1.27,3.39-1.98.16-.08.44-.09.68.88.29,1.19,3.57,15.73,12.71,24.11,4.57,4.19,5.15,6.56,5.63,6.46.81-.18-.56-4.72-.29-4.77.21-.04,3.5,10.34,3.53,10.59.11.99-.17.73-.27.73-1.31.03-1.97.05-3.26.1Z"/>
    <path class="cls-1" d="m45.81,77.48c-.2,0,6.22,3.09-6.44-16.82-4.21-6.62-8.8-16.17-7.38-24.13,1.12-.19,1.68-.27,2.8-.42.34-.05.95-.3,1.11.81.08.58.75,11.01,4.3,19.47,4.71,11.22,6.78,19.83,6.84,20.53.04.5,0,.55-.08.55-.06,0-.1,0-.16,0-.39,0-.59,0-.99.02Z"/>
    <path class="cls-1" d="m43.44,59.53c-2.72-6.56-4.37-23.67,3.66-25.31,1.79-.37,5.73,2.44,5.83,8.44.05,3.22-.82,4.86-2.2,4.85-.9,0,.1-5.09-2.92-5.04-3.75.07-1.79,9.82-2,15.96-.16,4.82,2.69,9.6,4,9.56.62-.02,1.13-1.87,1.05-4.2-.09-2.7-1.37-3.18-1.71-4.78-.17-.8,2.99-3.27,3.2-3.27.35,0,.17,9.89.22,11.56.21,7.27-1.03,10.84-2.03,10.85-1.86.01-1.7-5.6-7.1-18.62Z"/>
    <path class="cls-1" d="m56.74,77.4c-.08,0-.3.07-.29-.74,0-.25.02-.51.04-.72.41-4.85,1.91-9.99,3.56-13.59,1.14-2.47,1.56-4.29.47-4.39-1.65-.15-4.24,2.57-5.07,6.55-.52,2.47-.79,8.14-.58,11.62.02.21.03.57.03.78,0,.71-.19.5-.25.5-.47,0-.71,0-1.19,0-.23,0,.33-14.32.44-16.16.19-3.12,1.69-26.02,2.89-25.95,1.37.08,2.05.13,3.41.24.15.01.75-.11.74.6-.01.77-1.95,9.11-2.62,14.29-.16,1.22-.11,2.44.18,2.46.6.04.81-1.49,3.53-1.22.98.1,1.64.74,2.17-1.3,1.19-4.63-.22-13.09-.19-13.86.03-.77.77-.51.92-.49,1.31.16,1.96.24,3.26.43.95.14-1.09,17.05-5.83,25.47-1.07,1.9-4.19,15.48-4.45,15.48-.46,0-.7,0-1.16,0Z"/>
    <path class="cls-1" d="m60.7,77.41c-.15,0-3.43-3.67,3.04-12.46,4.97-6.76,11.04-15.27,11.72-17.13.55-1.51.93-2.45.35-2.55-1.65-.3-6.26,5.09-6.61,5.04-.19-.03-.34.17.1-1.22.49-1.54,2.53-8.1,3.1-9.63.38-1.04,3.91-2.53,7.28-1.8,4.01.87,7.26,4.17,6.49,6.63-.72,2.3-4.19,6.64-4.43,6.59-.37-.08.63-4.35-1.05-4.7-1.42-.3-6.56,9.53-9.13,12.74-7.18,8.97-9.51,16.86-9.57,17.72-.07,1.05-.33.78-.44.78-.34,0-.51,0-.85,0Z"/>
  </g>
  <path class="cls-2" d="m41.33,78.98c0,.09.72,1.55.72,1.55-.21.45-.42.91-.63,1.36-.12.31-.35,1-.23,1.86.07.5.23.89.36,1.14.13.16.26.32.38.47,5.7-.54,11.4-1.07,17.1-1.61.18-.04.51-.09.9.02.28.08.49.21.62.31v.48l-.3.63-17.23,1.41s-.59.17-.6.17c0,0-.67.19-.67.19-.14.13-.28.26-.41.39-.08.17-.27.62-.2,1.21.07.66.42,1.08.53,1.22.2.07.41.14.61.21.88-.07,1.76-.13,2.65-.2,5.13-.3,10.26-.6,15.39-.9.05.05.26.31.25.69,0,.5-.38.78-.42.8-6.06.33-12.11.66-18.17.99l-.22.24.06.24.41.42.64.36.11,1.52.72.45.64.21.52.33.25.72.66.39.66.27.41.45.99.93.94.54,1.52.33,1.16.18,1.41-.15,1.46-.39.91-.51.3-.66.44-.18.66-.66.39-.66.33-.24.88-.6.99-.78.5-1.05.83-1.64.33-.42.41-.66v-1.39l-.17-1.12-.69-.21c-5.77.37-11.54.73-17.31,1.1-.4.15-.78-.12-.82-.43-.04-.24.12-.53.39-.65.88-.09,1.76-.17,2.63-.26l4.39-.27c1.42-.1,2.87-.18,4.35-.24,1.32-.05,2.62-.09,3.89-.11.53.01,1.46-.05,2.44-.58.45-.24.8-.52,1.07-.78.09-.24.24-.73.17-1.35-.09-.87-.55-1.42-.72-1.6-.26-.13-.52-.26-.77-.39l-.75.09-2.21.21-6.08.66-7.65.9h-.69s-.4-.16-.49-.58c-.06-.31.07-.64.32-.82.28-.07.55-.14.83-.21l3.34-.3,4.34-.51,4.78-.42,3.34-.39,1.57-.12.66-.39c.04-.12.1-.37.06-.68-.04-.33-.18-.56-.25-.67-6.66.05-13.31.1-19.97.15Z"/>
</svg>