<?xml version="1.0" encoding="UTF-8"?>
<svg id="_Слой_1" data-name="Слой 1" xmlns="http://www.w3.org/2000/svg" viewBox="0 0 100 100">
  <defs>
    <style>
      .cls-1 {
        fill: #f8be15;
      }

      .cls-1, .cls-2 {
        width: 70px;
        height: 70px;
        stroke-width: 0px;
      }

      .cls-2 {
        fill: #49bfdc;
      }
    </style>
  </defs>
  <g>
    <path class="cls-1" d="m15.96,38.41c-.51.37-4.3.94-.8-12.78,4.61-18.07,9.76-15.81,10.01-16.02.55-.46.83-.68,1.4-1.11.61-.46.7-.68.17.63-1.04,2.53-1.5,5.02-1.07,4.83.33-.14,1.49-2.73,5.61-7.24,2.17-2.38,2.41-2.42,3.13-2.72.58-.24.87-.36,1.46-.58.32-.12-.83-3.32-2.53,15.08-1.29,13.96-.56,13.98-1.23,14.07-1.37.2-2.05.3-3.44.55-.33.06-.96.3-1.05-.38-.07-.53.23-8.39,2.24-17.45.16-.73,1.42-4.83.68-4.58-.65.21-2.62,3.73-3.09,4.63-3.96,7.63-2.89,11.24-4.56,11.85-2.09.77-1.93-3.47-1.23-9.38.07-.63.97-3.51.37-3.14-.63.39-2.59,4.39-2.86,5.11-3.4,8.94-.32,15.62-.24,16.14.11.67-.44.86-.71,1.01-.94.55-1.4.85-2.28,1.48Z"/>
    <path class="cls-1" d="m37.35,31.96c-1.4.21-1.61-1.39-1.6-9.27,0-5.21,4.48-20.6,5.06-20.73,3.17-.72,4.84-.92,8.24-.96.26,0,1.04-.09,1.02.49,0,.23-1.66,4.58-1.97,4.58-.41,0-1.02-1.52-3.27-1.33-1.58.14-3.51,1.58-3.95,4.84-.09.71-.14,1.96.56,1.88.8-.08,2.71-1.9,4.81-1.98.3-.01,1.12.1,1.09.7,0,.04-1.64,6.04-1.95,6.05-.26,0-1.24-.71-2.27-.64-1.34.09-3.42,1.6-3.46,5.48-.04,3.14,1.22,5.42,3.47,5.32,2.66-.12,4.23-2.81,4.88-2.81.4,0,2.35,6.94,2.36,7.34.02.76-.64.59-.95.58-4.8-.08-7.21,0-12.08.45Z"/>
    <path class="cls-1" d="m51.07,16.76c-.07-9.04,2.88-16.26,7.61-15.11,1.72.42,4.7,2.21,5.62,5.54.5,1.79-.18,2.64-1.63,2.31-.94-.22-.27-3.02-3.08-3.6-3.49-.72-4.43,5.11-4.27,10.38.12,4.13,1.01,8.85,4.47,9.24,1.64.18,3.42-.64,3.32-3.38-.12-3.17-2.21-3.71-2.27-4.69-.03-.49,4.09-1.99,4.38-1.93.49.11,1.82,9.42,1.83,10.61.06,5.19-3.59,6.99-6.78,6.66-5.98-.63-9.14-7.48-9.2-16.02Z"/>
    <path class="cls-1" d="m80.01,35.63c-.23-.05-.98-.12-.92-.67.11-1.03,2.4-4.34,1.83-8.4-.22-1.61-1.41-2.54-2.51-2.9-2.22-.71-5.6-1.19-5.47,3.19.09,3.04,1.52,6.7,1.46,7.27-.02.23-.18.23-.51.17-1.47-.29-2.2-.43-3.67-.69-1.31-.23-1.3-3.91-1.49-8.95-.63-16.61.78-18.45,1.49-17.98.53.35,11.74,5.44,14.37,21.58,1.51,9.29-.94,8.28-1.7,8.09-1.15-.29-1.72-.43-2.87-.7Zm-7.67-18.1c.09.42.31.71.59.8.43.13,2.51-.02,4.52.75.8.31,1.12.28.78-.63-.75-2.01-4.26-6.66-5.01-7.03-1.06-.53-1.44,3.57-.89,6.11Z"/>
  </g>
  <g>
    <path class="cls-1" d="m37.91,77.81c-.42.1.52-5.95-5.11-10.9-7.44-6.54-16.15-14.96-17.33-25.75,1.31-.88,2-1.29,3.44-2.01.16-.08.55-.02.69.89,1.35,8.66,5.9,18.13,12.9,24.47,4.63,4.19,5.22,6.66,5.71,6.55.82-.18-.57-4.79-.29-4.84.21-.04,3.55,10.5,3.58,10.75.11,1-.18.74-.28.74-1.33.03-1.99.05-3.31.1Z"/>
    <path class="cls-1" d="m42.61,77.68c-.21,0,6.32,3.14-6.54-17.07-4.27-6.72-8.93-16.41-7.49-24.49,1.14-.19,1.71-.27,2.84-.43.34-.05.97-.31,1.13.82.08.59.76,11.17,4.36,19.76,4.78,11.39,6.88,20.12,6.94,20.84.04.51,0,.55-.08.56-.07,0-.1,0-.16,0-.4,0-.6,0-1,.02Z"/>
    <path class="cls-1" d="m40.2,59.46c-2.76-6.65-4.44-24.02,3.71-25.69,1.82-.37,5.82,2.47,5.91,8.57.05,3.27-.83,4.93-2.23,4.92-.91,0,.1-5.17-2.96-5.11-3.81.07-1.82,9.96-2.03,16.2-.17,4.89,2.73,9.74,4.06,9.7.63-.02,1.15-1.89,1.07-4.26-.09-2.74-1.39-3.23-1.74-4.85-.17-.81,3.04-3.32,3.25-3.32.36,0,.18,10.04.22,11.73.21,7.38-1.05,11-2.06,11.01-1.89.01-1.73-5.68-7.21-18.9Z"/>
    <path class="cls-1" d="m53.7,77.59c-.08,0-.31.07-.3-.76,0-.26.02-.52.04-.74.41-4.92,1.94-10.14,3.62-13.79,1.15-2.51,1.59-4.35.47-4.45-1.68-.15-4.3,2.61-5.14,6.64-.52,2.51-.81,8.26-.59,11.79.02.21.03.58.03.79,0,.72-.19.51-.26.51-.48,0-.72,0-1.2,0-.23,0,.33-14.54.45-16.4.19-3.17,1.71-26.41,2.93-26.33,1.39.08,2.08.13,3.46.25.15.01.77-.11.75.61-.01.78-1.98,9.24-2.66,14.5-.16,1.24-.11,2.47.18,2.49.61.04.82-1.51,3.58-1.24,1,.1,1.66.76,2.2-1.32,1.21-4.7-.23-13.28-.2-14.06.03-.78.78-.51.93-.49,1.33.16,1.99.25,3.31.44.96.14-1.11,17.31-5.91,25.84-1.08,1.92-4.26,15.71-4.52,15.71-.47,0-.71,0-1.18,0Z"/>
    <path class="cls-1" d="m57.72,77.6c-.16,0-3.48-3.72,3.08-12.64,5.05-6.86,11.21-15.5,11.9-17.39.56-1.53.94-2.48.35-2.59-1.67-.31-6.35,5.17-6.71,5.12-.19-.03-.35.17.1-1.24.5-1.56,2.57-8.22,3.14-9.77.38-1.05,3.97-2.57,7.38-1.83,4.07.88,7.37,4.24,6.59,6.73-.73,2.33-4.25,6.74-4.49,6.69-.37-.08.63-4.41-1.06-4.77-1.44-.3-6.66,9.67-9.26,12.93-7.29,9.1-9.65,17.12-9.71,17.98-.07,1.06-.34.79-.44.79-.34,0-.52,0-.86,0Z"/>
  </g>
  <path class="cls-2" d="m38.06,79.2c0,.09.73,1.58.73,1.58-.21.46-.43.92-.64,1.38-.13.32-.35,1.02-.23,1.89.07.51.23.9.37,1.16.13.16.26.32.39.48,5.78-.54,11.57-1.09,17.35-1.63.18-.04.52-.1.92.02.28.08.49.21.63.32v.49l-.31.64-17.49,1.43s-.6.17-.6.17c0,0-.68.19-.68.19-.14.13-.28.26-.42.39-.08.17-.27.63-.21,1.22.07.67.42,1.1.54,1.23.21.07.41.14.62.21.9-.07,1.79-.14,2.69-.2,5.21-.31,10.41-.61,15.62-.92.05.05.26.31.26.7,0,.51-.39.79-.42.82-6.15.33-12.3.67-18.44,1l-.22.24.06.24.42.42.64.36.11,1.55.73.46.64.21.53.33.25.73.67.39.67.27.42.46,1.01.94.95.55,1.54.33,1.18.18,1.43-.15,1.49-.39.92-.52.31-.67.45-.18.67-.67.39-.67.34-.24.9-.61,1.01-.79.5-1.06.84-1.67.34-.42.42-.67v-1.41l-.17-1.14-.7-.21c-5.86.37-11.71.74-17.57,1.11-.4.15-.79-.12-.84-.43-.04-.24.12-.53.4-.66.89-.09,1.78-.17,2.67-.26l4.46-.27c1.44-.1,2.91-.18,4.41-.24,1.34-.05,2.66-.09,3.95-.11.54.01,1.48-.05,2.48-.59.45-.25.81-.53,1.09-.79.09-.24.24-.74.18-1.37-.1-.88-.56-1.44-.73-1.63-.26-.13-.52-.26-.78-.39l-.76.09-2.24.21-6.17.67-7.76.91h-.7s-.41-.16-.49-.59c-.06-.32.07-.65.32-.84.28-.07.56-.14.84-.21l3.39-.3,4.4-.52,4.85-.42,3.39-.39,1.6-.12.67-.39c.04-.13.1-.38.06-.69-.04-.34-.18-.57-.26-.68-6.75.05-13.51.1-20.26.15Z"/>
</svg>